# xmcd
#
# Track frame offsets:
#	150
#	15237
#	21810
#	35645
#	43189
#	54450
#	64200
#	77270
#	90397
#	105585
#	118407
#	129447
#	142140
#	152287
#	166132
#	176540
#	187222
#	196875
#	210075
#	217722
#
# Disc length: 3172 seconds
#
# Revision: 3
# Processed by: cddbd v1.5.1PL0 Copyright (c) Steve Scherf et al.
# Submitted via: audiograbber 1.80
#
DISCID=010c6214
DTITLE=Patsy Cline - The Legendary Patsy Cline disc 3
DYEAR=1956
DGENRE=Country
TTITLE0=Walkin' After Midnight
TTITLE1=The Man Upstairs
TTITLE2=Write Me in Care of the Blues
TTITLE3=Down by the Riverside
TTITLE4=Don't Ever Leave Me Again
TTITLE5=Walkin' Dream
TTITLE6=Life's Railway to Heaven
TTITLE7=Imagine That
TTITLE8=The Wayward Wind
TTITLE9=When You Need a Laugh
TTITLE10=South of the Border{Down Mexico Way}
TTITLE11=Bill Bailey, Won't You Please Come Home
TTITLE12=Strange
TTITLE13=I Fall to Pieces
TTITLE14=There He Goes
TTITLE15=Crazy
TTITLE16=Lovesick Blues
TTITLE17=She's Got You
TTITLE18=Loose Talk
TTITLE19=Just A Closer Walk With Thee
EXTD=Her Greatest Hits and Finest Performances
EXTT0=
EXTT1=
EXTT2=
EXTT3=
EXTT4=
EXTT5=
EXTT6=
EXTT7=
EXTT8=
EXTT9=
EXTT10=
EXTT11=
EXTT12=
EXTT13=
EXTT14=
EXTT15=
EXTT16=
EXTT17=
EXTT18=
EXTT19=
PLAYORDER=
